{
  "asset": {
    "version": "2.0",
    "generator": "THREE.GLTFExporter r166"
  },
  "scenes": [
    {
      "name": "AuxScene",
      "nodes": [
        7
      ]
    }
  ],
  "scene": 0,
  "nodes": [
    {
      "translation": [
        -255.5,
        -256.16721001500264,
        -15.5
      ],
      "extras": {
        "isHole": false
      },
      "mesh": 0
    },
    {
      "translation": [
        -255.5,
        -256.16721001500264,
        -15.5
      ],
      "extras": {
        "isHole": false
      },
      "mesh": 1
    },
    {
      "children": [
        0,
        1
      ]
    },
    {
      "rotation": [
        0,
        0.3826834323650898,
        0,
        0.9238795325112867
      ],
      "scale": [
        0.1951790768029667,
        -0.1951790768029667,
        0.1951790768029667
      ],
      "children": [
        2
      ]
    },
    {
      "children": [
        3
      ]
    },
    {
      "translation": [
        0,
        0.017698481115463238,
        -3.552713678800501e-15
      ],
      "children": [
        4
      ]
    },
    {
      "children": [
        5
      ]
    },
    {
      "children": [
        6
      ]
    }
  ],
  "bufferViews": [
    {
      "buffer": 0,
      "byteOffset": 0,
      "byteLength": 33840,
      "target": 34962,
      "byteStride": 12
    },
    {
      "buffer": 0,
      "byteOffset": 33840,
      "byteLength": 22560,
      "target": 34962,
      "byteStride": 8
    },
    {
      "buffer": 0,
      "byteOffset": 56400,
      "byteLength": 33840,
      "target": 34962,
      "byteStride": 12
    },
    {
      "buffer": 0,
      "byteOffset": 90240,
      "byteLength": 13248,
      "target": 34962,
      "byteStride": 12
    },
    {
      "buffer": 0,
      "byteOffset": 103488,
      "byteLength": 8832,
      "target": 34962,
      "byteStride": 8
    },
    {
      "buffer": 0,
      "byteOffset": 112320,
      "byteLength": 13248,
      "target": 34962,
      "byteStride": 12
    }
  ],
  "buffers": [
    {
      "byteLength": 125568,
      "uri": "data:application/octet-stream;base64,"
    }
  ],
  "accessors": [
    {
      "bufferView": 0,
      "componentType": 5126,
      "count": 2820,
      "max": [
        511,
        512.3499755859375,
        31
      ],
      "min": [
        0,
        0.1658007800579071,
        0
      ],
      "type": "VEC3"
    },
    {
      "bufferView": 1,
      "componentType": 5126,
      "count": 2820,
      "max": [
        512.3499755859375,
        512.3499755859375
      ],
      "min": [
        0,
        -30
      ],
      "type": "VEC2"
    },
    {
      "bufferView": 2,
      "componentType": 5126,
      "count": 2820,
      "max": [
        1,
        1,
        1
      ],
      "min": [
        -0.9995562434196472,
        -1,
        -1
      ],
      "type": "VEC3"
    },
    {
      "bufferView": 3,
      "componentType": 5126,
      "count": 1104,
      "max": [
        288.6199951171875,
        424.79998779296875,
        31
      ],
      "min": [
        223.27000427246094,
        407.3299865722656,
        0
      ],
      "type": "VEC3"
    },
    {
      "bufferView": 4,
      "componentType": 5126,
      "count": 1104,
      "max": [
        420.2699890136719,
        424.79998779296875
      ],
      "min": [
        223.27000427246094,
        -30
      ],
      "type": "VEC2"
    },
    {
      "bufferView": 5,
      "componentType": 5126,
      "count": 1104,
      "max": [
        1,
        1,
        1
      ],
      "min": [
        -0.9949402809143066,
        -1,
        -1
      ],
      "type": "VEC3"
    }
  ],
  "materials": [
    {
      "pbrMetallicRoughness": {
        "baseColorFactor": [
          0,
          0,
          0,
          1
        ],
        "metallicFactor": 0.9,
        "roughnessFactor": 0.2
      },
      "extras": {
        "isHole": false
      }
    },
    {
      "pbrMetallicRoughness": {
        "baseColorFactor": [
          0,
          0,
          0,
          1
        ],
        "metallicFactor": 0.5,
        "roughnessFactor": 0.05
      },
      "extras": {
        "isHole": false
      }
    }
  ],
  "meshes": [
    {
      "primitives": [
        {
          "mode": 4,
          "attributes": {
            "POSITION": 0,
            "TEXCOORD_0": 1,
            "NORMAL": 2
          },
          "material": 0
        }
      ]
    },
    {
      "primitives": [
        {
          "mode": 4,
          "attributes": {
            "POSITION": 3,
            "TEXCOORD_0": 4,
            "NORMAL": 5
          },
          "material": 1
        }
      ]
    }
  ]
}